<svg width="14.000000" height="14.000000" viewBox="0 0 14 14" fill="none" xmlns="http://www.w3.org/2000/svg" xmlns:xlink="http://www.w3.org/1999/xlink">
	<defs>
		<clipPath id="clip87_45">
			<rect id="tabler:edit" width="14.000000" height="14.000000" fill="white" fill-opacity="0"/>
		</clipPath>
	</defs>
	<rect id="tabler:edit" width="14.000000" height="14.000000" fill="#FFFFFF" fill-opacity="0"/>
	<g clip-path="url(#clip87_45)">
		<path id="Vector" d="M2.94 3.68L2.21 3.68C1.82 3.68 1.44 3.83 1.16 4.11C0.89 4.39 0.73 4.76 0.73 5.15L0.73 11.78C0.73 12.18 0.89 12.55 1.16 12.83C1.44 13.1 1.82 13.26 2.21 13.26L8.84 13.26C9.23 13.26 9.6 13.1 9.88 12.83C10.16 12.55 10.31 12.18 10.31 11.78L10.31 11.05M13.26 2.28C13.26 1.87 13.1 1.48 12.81 1.19C12.52 0.89 12.12 0.73 11.71 0.73C11.3 0.73 10.91 0.89 10.62 1.19L4.42 7.36L4.42 9.57L6.63 9.57L12.81 3.37C13.1 3.08 13.26 2.69 13.26 2.28ZM9.58 2.21L11.79 " stroke="#D0D0D0" stroke-opacity="1.000000" stroke-width="1.000000" stroke-linejoin="round"/>
	</g>
</svg>
