<svg width="35.000000" height="35.000000" viewBox="0 0 35 35" fill="none" xmlns="http://www.w3.org/2000/svg" xmlns:xlink="http://www.w3.org/1999/xlink">
	<defs/>
	<path id="Subtract" d="M35 17.5C35 27.16 27.16 35 17.5 35C7.83 35 0 27.16 0 17.5C0 7.83 7.83 0 17.5 0C27.16 0 35 7.83 35 17.5ZM9.59 24.68C9.59 25.45 9.89 26.18 10.43 26.72C10.97 27.25 11.7 27.56 12.46 27.56L24.68 27.56C24.87 27.56 25.06 27.48 25.19 27.35C25.33 27.21 25.4 27.03 25.4 26.84C25.4 26.65 25.33 26.47 25.19 26.33C25.06 26.2 24.87 26.12 24.68 26.12L12.46 26.12C12.08 26.12 11.72 25.97 11.45 25.7C11.18 25.43 11.03 25.06 11.03 24.68L24.14 24.68C24.48 24.68 24.8 24.55 25.03 24.31C25.27 24.08 25.4 23.76 25.4 23.42L25.4 10.31C25.4 9.55 25.1 8.81 24.56 8.27C24.02 7.74 23.29 7.43 22.53 7.43L12.46 7.43C11.7 7.43 10.97 7.74 10.43 8.27C9.89 8.81 9.59 9.55 9.59 10.31L9.59 24.68ZM18.89 11.96C18.52 11.59 18.02 11.39 17.5 11.39C16.97 11.39 16.47 11.59 16.1 11.96C15.73 12.34 15.52 12.84 15.52 13.36C15.52 13.89 15.73 14.39 16.1 14.76C16.47 15.13 16.97 15.34 17.5 15.34C18.02 15.34 18.52 15.13 18.89 14.76C19.26 14.39 19.47 13.89 19.47 13.36C19.47 12.84 19.26 12.34 18.89 11.96ZM20.77 16.37C20.57 16.17 20.3 16.06 20.01 16.06L14.98 16.06C14.69 16.06 14.42 16.17 14.22 16.37C14.01 16.58 13.9 16.85 13.9 17.14L13.9 17.5C13.9 18.91 15.24 20.37 17.5 20.37C19.75 20.37 21.09 18.91 21.09 17.5L21.09 17.14C21.09 16.85 20.98 16.58 20.77 16.37Z" fill="#FFFFFF" fill-opacity="1.000000" fill-rule="evenodd"/>
</svg>
