<svg width="35.000000" height="35.000000" viewBox="0 0 35 35" fill="none" xmlns="http://www.w3.org/2000/svg" xmlns:xlink="http://www.w3.org/1999/xlink">
	<defs/>
	<path id="Icon" d="M17.5 0C12.85 0 8.4 1.84 5.12 5.12C1.84 8.4 0 12.85 0 17.5C0 22.14 1.84 26.59 5.12 29.87C8.4 33.15 12.85 35 17.5 35C22.14 35 26.59 33.15 29.87 29.87C33.15 26.59 35 22.14 35 17.5C35 12.85 33.15 8.4 29.87 5.12C26.59 1.84 22.14 0 17.5 0ZM7.16 10.33L23.86 10.33C24.7 10.35 25.5 10.69 26.09 11.28C26.69 11.88 27.02 12.69 27.02 13.53L27.02 22.08C27.01 22.92 26.67 23.72 26.08 24.31C25.48 24.9 24.68 25.24 23.85 25.25L11.72 25.25C10.01 25.25 8.75 23.81 8.75 22.08L8.75 15.31L6.56 11.52C6.11 10.91 6.49 10.33 7.16 10.33ZM12.14 13.53C11.63 13.53 11.15 13.83 11.15 14.32C11.15 14.81 11.63 15.11 12.14 15.11L23.66 15.11C24.17 15.11 24.66 14.81 24.66 14.32C24.66 13.83 24.17 13.53 23.66 13.53L12.14 13.53ZM12.14 16.7C11.63 16.7 11.15 17.01 11.15 17.5C11.15 17.98 11.63 18.29 12.14 18.29L23.66 18.29C24.17 18.29 24.66 17.98 24.66 17.5C24.66 17.01 24.17 16.7 23.66 16.7L12.14 16.7ZM12.12 19.9C11.61 19.9 11.13 20.2 11.13 20.69C11.13 21.18 11.61 21.48 12.12 21.48L20.47 21.48C20.98 21.48 21.46 21.18 21.46 20.69C21.46 20.2 20.98 19.89 20.47 19.89L12.12 19.9Z" fill="#FFFFFF" fill-opacity="1.000000" fill-rule="nonzero"/>
</svg>
