<svg width="35.000000" height="35.000000" viewBox="0 0 35 35" fill="none" xmlns="http://www.w3.org/2000/svg" xmlns:xlink="http://www.w3.org/1999/xlink">
	<defs/>
	<path id="Icon" d="M17.5 0C7.83 0 0 7.83 0 17.5C0 27.16 7.83 35 17.5 35C27.16 35 35 27.16 35 17.5C35 7.83 27.16 0 17.5 0ZM17.46 9.73C19.07 9.75 20.41 11.06 20.85 12.74C21.02 13.42 21.04 14.11 20.87 14.84C20.62 15.85 20.1 16.85 19.14 17.46L20.54 18.13L23.86 19.74C24.19 19.88 24.35 20.16 24.35 20.58L24.35 23.79C24.35 24.46 24.41 25.03 23.58 25.27L11.33 25.27C10.54 25.25 10.51 24.45 10.53 23.79L10.53 20.58C10.53 20.16 10.7 19.86 11.05 19.7L14.48 18.13L15.82 17.5C15.21 17.1 14.73 16.55 14.38 15.85C13.96 14.93 13.79 13.73 14.1 12.63C14.49 11.14 15.7 9.81 17.46 9.73ZM11.75 11.2C12.27 11.2 12.74 11.35 13.16 11.65C13.04 11.98 12.94 12.32 12.86 12.68C12.78 13.05 12.74 13.42 12.74 13.82C12.74 14.4 12.82 14.96 12.98 15.5C13.14 16.04 13.38 16.53 13.68 16.97C13.54 17.16 13.35 17.32 13.12 17.46L10.53 18.65C10.18 18.84 9.9 19.1 9.69 19.44C9.48 19.78 9.37 20.16 9.37 20.58L9.37 23.79L6.82 23.79C6.45 23.79 6.2 23.42 6.19 23.03L6.19 19.98C6.19 19.63 6.32 19.4 6.57 19.28L10.46 17.5C9.46 16.88 8.97 15.76 8.92 14.52C8.94 12.99 9.94 11.32 11.75 11.2ZM23.23 11.2C24.85 11.22 26.01 12.82 26.07 14.52C26.06 15.65 25.62 16.73 24.6 17.46L28.41 19.28C28.67 19.42 28.8 19.65 28.8 19.98L28.8 23.03C28.8 23.39 28.6 23.76 28.17 23.79L25.54 23.79L25.54 20.58C25.54 20.16 25.44 19.78 25.23 19.44C25.02 19.1 24.74 18.84 24.39 18.65C23.3 18.15 22.05 17.78 21.24 16.94C21.85 16 22.15 14.96 22.15 13.82C22.15 13.1 22.02 12.38 21.76 11.68C22.19 11.41 22.68 11.2 23.23 11.2Z" fill="#FFB72B" fill-opacity="1.000000" fill-rule="nonzero"/>
</svg>
